<?xml version="1.0" standalone="no"?><!DOCTYPE svg PUBLIC "-//W3C//DTD SVG 1.1//EN" "http://www.w3.org/Graphics/SVG/1.1/DTD/svg11.dtd"><svg t="1702019720023" class="icon" viewBox="0 0 1024 1024" version="1.1" xmlns="http://www.w3.org/2000/svg" p-id="15024" xmlns:xlink="http://www.w3.org/1999/xlink" width="16" height="16"><path d="M72.902194 16.295914h800.074322a23.563011 23.563011 0 0 1 18.773333 8.874667l117.561807 142.974623c3.721634 4.525419 5.527398 9.568344 5.527398 15.437076v764.080172c0 40.145204-32.745978 72.902194-72.902194 72.902193H72.913204C32.745978 1020.564645 0 987.807656 0 947.662452V89.198108C0 49.041892 32.745978 16.295914 72.902194 16.295914z m37.854967 516.217118a4.866753 4.866753 0 0 0-4.855742 4.877764v363.795269c0 2.664602 2.180129 4.844731 4.855742 4.844731h795.449807a4.844731 4.844731 0 0 0 4.855742-4.844731v-363.795269a4.877763 4.877763 0 0 0-4.855742-4.877764H110.757161zM228.616258 124.64172a4.877763 4.877763 0 0 0-4.855742 4.866753V354.105806c0 2.686624 2.180129 4.866753 4.855742 4.866753h557.606538a4.866753 4.866753 0 0 0 4.855742-4.866753V129.508473a4.877763 4.877763 0 0 0-4.855742-4.866753H228.616258z" fill="#434A54" p-id="15025"></path></svg>